<mxfile host="app.diagrams.net" modified="2024-05-30T20:26:37.661Z" agent="Mozilla/5.0 (Macintosh; Intel Mac OS X 10_15_7) AppleWebKit/537.36 (KHTML, like Gecko) Chrome/125.0.0.0 Safari/537.36" version="24.4.8" etag="Vsqzr3AVpH842ZB9bOoB" type="github">
  <diagram name="Page-1" id="juIyqvwSDfVmOKqhQty1">
    <mxGraphModel>
      <root>
        <mxCell id="0" />
        <mxCell id="1" parent="0" />
      </root>
    </mxGraphModel>
  </diagram>
</mxfile>
